<svg width="1024" height="1024" viewBox="0 0 120 120" fill="none" xmlns="http://www.w3.org/2000/svg" shape-rendering="crispEdges">
  <path d="M27 9h9v9h9v9h-9v-9h-9ZM84 9h9v9h-9v9h-9v-9h9Z" fill="#ff6748"/>
  <path d="M36 24h48v9h12v15h9V36h12v30h-9v9H96v15H84v9H72v15H60V99H48v15H36V99H24V87H15V75H3V48h12v9h9V36h12Z" fill="#a72b43"/>
  <path d="M36 21h48v9h12v27h9V42h9v21h-9v9H93v12H81v9H39v-9H27V72H15v-9H6V42h9v15h9V30h12Z" fill="#ff6345"/>
  <path d="M36 21h48v9H36ZM24 30h12v12H24ZM6 42h9v15H6ZM105 42h9v15h-9Z" fill="#ffb36a"/>
  <path d="M33 45h18v18H33ZM69 45h18v18H69Z" fill="#161b30"/>
  <path d="M39 45h6v9h-6ZM75 45h6v9h-6Z" fill="#76f6d8"/>
  <path d="M45 78h30v6H45ZM36 96h12v12H36ZM72 96h12v12H72Z" fill="#ff854e"/>
  <path d="M6 15h6v6H6ZM108 9h6v6h-6ZM6 96h6v6H6ZM108 93h6v6h-6Z" fill="#36b8af"/>
</svg>
